<svg width="14" height="14" xmlns="http://www.w3.org/2000/svg"><path d="M7 1.244c1.867 0 2.1 0 2.8.078.7 0 1.089.156 1.322.234.311.155.545.31.778.544.233.233.389.467.544.778.078.233.234.622.234 1.322 0 .7.078.933.078 2.8 0 1.867 0 2.1-.078 2.8 0 .7-.156 1.089-.234 1.322a2.793 2.793 0 0 1-.544.778 2.793 2.793 0 0 1-.778.544c-.233.078-.622.234-1.322.234-.7 0-.933.078-2.8.078-1.867 0-2.1 0-2.8-.078-.7 0-1.089-.156-1.322-.234A2.793 2.793 0 0 1 2.1 11.9a2.793 2.793 0 0 1-.544-.778c-.078-.233-.234-.622-.234-1.322 0-.7-.078-.933-.078-2.8 0-1.867 0-2.1.078-2.8 0-.7.156-1.089.234-1.322.155-.311.31-.545.544-.778.233-.311.467-.467.778-.544.233-.078.622-.234 1.322-.234.7-.078.933-.078 2.8-.078M7 0C5.133 0 4.822 0 4.122.078c-.778 0-1.244.155-1.71.31a3.045 3.045 0 0 0-1.245.779A3.045 3.045 0 0 0 .389 2.41c-.233.467-.311.933-.311 1.711C0 4.822 0 5.133 0 7c0 1.867 0 2.178.078 2.878 0 .778.155 1.244.31 1.71.156.468.39.856.779 1.245.389.39.777.623 1.244.778.467.156.933.311 1.711.311C4.822 14 5.133 14 7 14c1.867 0 2.178 0 2.878-.078.778 0 1.244-.155 1.71-.31a3.045 3.045 0 0 0 1.245-.779c.39-.389.623-.777.778-1.244.156-.467.311-.933.311-1.711S14 8.867 14 7c0-1.867 0-2.178-.078-2.878 0-.778-.155-1.244-.31-1.71a3.045 3.045 0 0 0-.779-1.245A3.045 3.045 0 0 0 11.59.389c-.467-.156-.933-.311-1.711-.311C9.178 0 8.867 0 7 0m0 3.422C4.978 3.422 3.422 4.978 3.422 7A3.568 3.568 0 0 0 7 10.578 3.568 3.568 0 0 0 10.578 7 3.568 3.568 0 0 0 7 3.422m0 5.911c-1.322 0-2.333-1.01-2.333-2.333 0-1.322 1.01-2.333 2.333-2.333 1.322 0 2.333 1.01 2.333 2.333 0 1.322-1.01 2.333-2.333 2.333m3.733-6.922a.863.863 0 0 0-.855.856c0 .466.389.855.855.855a.863.863 0 0 0 .856-.855.863.863 0 0 0-.856-.856" fill="#FFF" fill-rule="evenodd"/></svg>