<svg width="14" height="12" xmlns="http://www.w3.org/2000/svg"><path d="M4.433 11.356c5.29 0 8.167-4.356 8.167-8.167V2.8c.544-.389 1.011-.933 1.4-1.478a6.456 6.456 0 0 1-1.633.467c.622-.389 1.01-.933 1.244-1.556a7.134 7.134 0 0 1-1.789.7A2.778 2.778 0 0 0 9.722 0C8.167 0 6.844 1.322 6.844 2.878c0 .233 0 .466.078.622-2.41-.156-4.51-1.244-5.91-3.033a2.979 2.979 0 0 0-.39 1.477c0 1.012.545 1.867 1.245 2.412-.467 0-.934-.156-1.323-.39 0 1.4 1.012 2.567 2.334 2.8-.234.078-.467.078-.778.078-.156 0-.389 0-.544-.077.388 1.166 1.4 1.944 2.722 2.022-1.011.778-2.256 1.244-3.578 1.244-.233 0-.467 0-.7-.077 1.244.933 2.8 1.4 4.433 1.4" fill="#FFF" fill-rule="evenodd"/></svg>