<?xml version="1.0" encoding="UTF-8"?>
<svg width="14px" height="14px" viewBox="0 0 14 14" version="1.1" xmlns="http://www.w3.org/2000/svg" xmlns:xlink="http://www.w3.org/1999/xlink">
    <!-- Generator: Sketch 53.2 (72643) - https://sketchapp.com -->
    <title>Fill 652</title>
    <desc>Created with Sketch.</desc>
    <g id="Page-4" stroke="none" stroke-width="1" fill="none" fill-rule="evenodd">
        <g id="PN-wireframes-V1-NL" transform="translate(-1284.000000, -2946.000000)" fill="#FFFFFF">
            <g id="Group-664" transform="translate(0.000000, 1754.000000)">
                <path d="M1291,1193.24444 C1292.86667,1193.24444 1293.1,1193.24444 1293.8,1193.32222 C1294.5,1193.32222 1294.88889,1193.47778 1295.12222,1193.55556 C1295.43333,1193.71111 1295.66667,1193.86667 1295.9,1194.1 C1296.13333,1194.33333 1296.28889,1194.56667 1296.44444,1194.87778 C1296.52222,1195.11111 1296.67778,1195.5 1296.67778,1196.2 C1296.67778,1196.9 1296.75556,1197.13333 1296.75556,1199 C1296.75556,1200.86667 1296.75556,1201.1 1296.67778,1201.8 C1296.67778,1202.5 1296.52222,1202.88889 1296.44444,1203.12222 C1296.28889,1203.43333 1296.13333,1203.66667 1295.9,1203.9 C1295.66667,1204.13333 1295.43333,1204.28889 1295.12222,1204.44444 C1294.88889,1204.52222 1294.5,1204.67778 1293.8,1204.67778 C1293.1,1204.67778 1292.86667,1204.75556 1291,1204.75556 C1289.13333,1204.75556 1288.9,1204.75556 1288.2,1204.67778 C1287.5,1204.67778 1287.11111,1204.52222 1286.87778,1204.44444 C1286.56667,1204.28889 1286.33333,1204.13333 1286.1,1203.9 C1285.86667,1203.66667 1285.71111,1203.43333 1285.55556,1203.12222 C1285.47778,1202.88889 1285.32222,1202.5 1285.32222,1201.8 C1285.32222,1201.1 1285.24444,1200.86667 1285.24444,1199 C1285.24444,1197.13333 1285.24444,1196.9 1285.32222,1196.2 C1285.32222,1195.5 1285.47778,1195.11111 1285.55556,1194.87778 C1285.71111,1194.56667 1285.86667,1194.33333 1286.1,1194.1 C1286.33333,1193.78889 1286.56667,1193.63333 1286.87778,1193.55556 C1287.11111,1193.47778 1287.5,1193.32222 1288.2,1193.32222 C1288.9,1193.24444 1289.13333,1193.24444 1291,1193.24444 M1291,1192 C1289.13333,1192 1288.82222,1192 1288.12222,1192.07778 C1287.34444,1192.07778 1286.87778,1192.23333 1286.41111,1192.38889 C1285.94444,1192.54444 1285.55556,1192.77778 1285.16667,1193.16667 C1284.77778,1193.55556 1284.54444,1193.94444 1284.38889,1194.41111 C1284.15556,1194.87778 1284.07778,1195.34444 1284.07778,1196.12222 C1284,1196.82222 1284,1197.13333 1284,1199 C1284,1200.86667 1284,1201.17778 1284.07778,1201.87778 C1284.07778,1202.65555 1284.23333,1203.12222 1284.38889,1203.58889 C1284.54444,1204.05556 1284.77778,1204.44444 1285.16667,1204.83333 C1285.55556,1205.22222 1285.94444,1205.45556 1286.41111,1205.61111 C1286.87778,1205.76667 1287.34444,1205.92222 1288.12222,1205.92222 C1288.82222,1206 1289.13333,1206 1291,1206 C1292.86667,1206 1293.17778,1206 1293.87778,1205.92222 C1294.65555,1205.92222 1295.12222,1205.76667 1295.58889,1205.61111 C1296.05556,1205.45556 1296.44444,1205.22222 1296.83333,1204.83333 C1297.22222,1204.44444 1297.45556,1204.05556 1297.61111,1203.58889 C1297.76667,1203.12222 1297.92222,1202.65555 1297.92222,1201.87778 C1297.92222,1201.1 1298,1200.86667 1298,1199 C1298,1197.13333 1298,1196.82222 1297.92222,1196.12222 C1297.92222,1195.34444 1297.76667,1194.87778 1297.61111,1194.41111 C1297.45556,1193.94444 1297.22222,1193.55556 1296.83333,1193.16667 C1296.44444,1192.77778 1296.05556,1192.54444 1295.58889,1192.38889 C1295.12222,1192.23333 1294.65555,1192.07778 1293.87778,1192.07778 C1293.17778,1192 1292.86667,1192 1291,1192 M1291,1195.42222 C1288.97778,1195.42222 1287.42222,1196.97778 1287.42222,1199 C1287.42222,1201.02222 1289.05556,1202.57778 1291,1202.57778 C1293.02222,1202.57778 1294.57778,1200.94444 1294.57778,1199 C1294.57778,1197.05556 1293.02222,1195.42222 1291,1195.42222 M1291,1201.33333 C1289.67778,1201.33333 1288.66667,1200.32222 1288.66667,1199 C1288.66667,1197.67778 1289.67778,1196.66667 1291,1196.66667 C1292.32222,1196.66667 1293.33333,1197.67778 1293.33333,1199 C1293.33333,1200.32222 1292.32222,1201.33333 1291,1201.33333 M1294.73333,1194.41111 C1294.26667,1194.41111 1293.87778,1194.8 1293.87778,1195.26667 C1293.87778,1195.73333 1294.26667,1196.12222 1294.73333,1196.12222 C1295.2,1196.12222 1295.58889,1195.73333 1295.58889,1195.26667 C1295.58889,1194.8 1295.2,1194.41111 1294.73333,1194.41111" id="Fill-652"></path>
            </g>
        </g>
    </g>
</svg>