<?xml version="1.0" encoding="UTF-8"?>
<svg width="14px" height="12px" viewBox="0 0 14 12" version="1.1" xmlns="http://www.w3.org/2000/svg" xmlns:xlink="http://www.w3.org/1999/xlink">
    <!-- Generator: Sketch 53.2 (72643) - https://sketchapp.com -->
    <title>Fill 650</title>
    <desc>Created with Sketch.</desc>
    <g id="Page-4" stroke="none" stroke-width="1" fill="none" fill-rule="evenodd">
        <g id="PN-wireframes-V1-NL" transform="translate(-1328.000000, -2947.000000)" fill="#FFFFFF">
            <g id="Group-664" transform="translate(0.000000, 1754.000000)">
                <path d="M1332.43333,1204.35555 C1337.72222,1204.35555 1340.6,1200 1340.6,1196.18889 C1340.6,1196.03333 1340.6,1195.95556 1340.6,1195.8 C1341.14444,1195.41111 1341.61111,1194.86667 1342,1194.32222 C1341.45555,1194.55556 1340.91111,1194.71111 1340.36667,1194.78889 C1340.98889,1194.4 1341.37778,1193.85556 1341.61111,1193.23333 C1341.06666,1193.54444 1340.44444,1193.77778 1339.82222,1193.93333 C1339.27777,1193.31111 1338.5,1193 1337.72222,1193 C1336.16667,1193 1334.84444,1194.32222 1334.84444,1195.87778 C1334.84444,1196.11111 1334.84444,1196.34444 1334.92222,1196.5 C1332.51111,1196.34444 1330.41111,1195.25556 1329.01111,1193.46667 C1328.77778,1193.85556 1328.62222,1194.4 1328.62222,1194.94444 C1328.62222,1195.95556 1329.16667,1196.81111 1329.86667,1197.35556 C1329.4,1197.35556 1328.93333,1197.2 1328.54444,1196.96667 C1328.54444,1198.36667 1329.55555,1199.53333 1330.87778,1199.76667 C1330.64444,1199.84444 1330.41111,1199.84444 1330.1,1199.84444 C1329.94444,1199.84444 1329.71111,1199.84444 1329.55555,1199.76667 C1329.94444,1200.93333 1330.95555,1201.71111 1332.27777,1201.78889 C1331.26666,1202.56666 1330.02222,1203.03333 1328.7,1203.03333 C1328.46667,1203.03333 1328.23333,1203.03333 1328,1202.95555 C1329.24444,1203.88889 1330.8,1204.35555 1332.43333,1204.35555" id="Fill-650"></path>
            </g>
        </g>
    </g>
</svg>